<?xml version="1.0" standalone="no"?>
<!DOCTYPE svg PUBLIC "-//W3C//DTD SVG 20010904//EN"
 "http://www.w3.org/TR/2001/REC-SVG-20010904/DTD/svg10.dtd">
<svg version="1.0" xmlns="http://www.w3.org/2000/svg"
 width="1397.000000pt" height="400.000000pt" viewBox="0 0 1397.000000 400.000000"
 preserveAspectRatio="xMidYMid meet">

<g transform="translate(0.000000,400.000000) scale(0.100000,-0.100000)"
fill="#000000" stroke="none">
<path d="M10510 3773 c-211 -472 -644 -1513 -633 -1523 9 -9 262 -120 273
-120 4 0 35 82 70 183 34 100 76 211 94 247 56 117 203 240 285 240 58 0 62
-17 61 -286 -1 -264 2 -285 56 -336 35 -33 84 -54 145 -63 178 -27 463 149
624 384 l48 70 -99 105 c-54 58 -100 106 -103 106 -3 0 -19 -24 -36 -52 -16
-29 -75 -98 -130 -154 -141 -144 -193 -164 -215 -86 -5 20 -10 128 -10 239 0
117 -4 213 -11 230 -5 15 -27 45 -46 65 -74 76 -198 88 -313 31 -46 -23 -60
-26 -55 -14 28 72 170 396 229 521 40 85 72 156 71 158 -2 2 -277 102 -282
102 -1 0 -12 -21 -23 -47z"/>
<path d="M6690 3773 c0 -43 -57 -314 -68 -325 -11 -11 -102 -22 -264 -33
l-108 -7 0 35 c0 38 -18 97 -30 97 -4 0 -13 -7 -20 -15 -10 -12 -9 -15 8 -15
17 0 21 -8 24 -50 1 -28 0 -50 -4 -50 -5 0 -8 -58 -8 -130 l0 -130 38 0 37 0
24 -98 c49 -196 34 -413 -38 -568 -26 -56 -33 -64 -57 -64 -26 0 -26 -1 -10
-13 15 -11 17 -17 7 -35 -6 -12 -17 -22 -23 -22 -6 0 -9 -3 -5 -6 3 -4 -3 -24
-14 -46 -15 -30 -17 -43 -9 -53 19 -23 -10 -29 -38 -8 -38 28 -38 48 -3 89 18
19 28 40 24 47 -4 7 -10 1 -15 -15 -8 -22 -16 -27 -54 -30 -25 -2 -48 0 -50 4
-3 5 -16 8 -28 8 -16 0 -32 12 -47 35 -13 19 -28 35 -32 35 -5 0 0 -12 11 -27
35 -50 143 -295 184 -420 37 -109 44 -123 64 -123 28 0 64 44 65 79 0 21 5 16
24 -27 55 -121 112 -329 130 -480 4 -32 13 -56 21 -59 19 -7 54 25 54 49 0 28
-29 164 -51 243 -20 69 -79 208 -85 202 -2 -2 10 -41 27 -88 35 -96 79 -277
79 -328 0 -55 -10 -30 -30 71 -19 98 -74 287 -109 376 -11 28 -17 52 -11 52 5
0 12 -4 15 -10 3 -5 15 -15 27 -21 24 -13 18 1 -15 38 -11 13 -18 26 -15 29 7
7 107 -34 129 -53 21 -17 30 -17 23 2 -8 19 18 20 54 1 33 -18 122 -109 122
-125 0 -8 -13 -12 -32 -10 -18 1 -50 1 -70 0 l-38 -1 0 -125 0 -125 85 0 c47
0 85 -2 85 -4 0 -19 -25 -62 -56 -96 -36 -40 -38 -41 -49 -20 -10 19 -13 16
-34 -35 -22 -52 -30 -61 -120 -119 -53 -35 -109 -70 -126 -79 -16 -8 -51 -33
-76 -56 -26 -22 -49 -38 -52 -34 -8 7 -22 -28 -31 -77 -5 -25 -4 -31 3 -20 6
9 23 14 45 12 44 -4 64 23 38 51 -16 18 -15 20 8 38 14 10 34 27 45 38 26 25
148 105 260 170 50 30 115 69 147 87 31 19 59 34 62 34 11 0 54 54 67 83 9 22
18 27 45 27 23 0 34 -5 34 -14 0 -26 21 -29 49 -9 18 14 44 21 83 22 50 1 56
-1 51 -18 -2 -10 -18 -28 -34 -40 -32 -24 -38 -55 -13 -65 24 -9 24 -8 17 26
-6 28 -4 31 15 26 19 -5 23 -1 28 33 l7 39 578 0 579 0 0 125 0 125 -782 0
-781 0 -71 73 c-39 39 -81 79 -94 87 l-22 15 20 75 c11 41 20 78 20 82 0 4
-16 23 -37 43 l-36 35 81 168 c119 246 225 525 297 783 l16 56 72 8 c96 9 350
54 358 63 5 6 -19 252 -25 259 -2 2 -73 -9 -160 -23 -86 -15 -159 -24 -161
-22 -2 2 8 61 22 131 14 70 23 131 19 134 -3 3 -54 14 -113 24 -60 10 -123 21
-140 24 -31 6 -33 4 -33 -22z m-145 -651 c-38 -127 -183 -487 -192 -478 -3 3
0 42 7 86 14 90 5 193 -31 337 -10 42 -17 78 -15 80 3 3 162 19 213 22 l32 1
-14 -48z m-431 -897 c38 -35 56 -43 56 -26 0 16 38 23 59 11 11 -6 18 -16 15
-24 -4 -10 0 -13 14 -9 11 2 47 -10 83 -29 35 -18 67 -34 70 -36 4 -1 12 11
19 28 7 16 15 30 17 30 3 0 18 -10 35 -21 26 -19 30 -27 25 -58 -2 -20 -15
-60 -27 -90 -26 -59 -21 -58 -128 -27 -42 12 -58 13 -72 4 -27 -17 -36 -3 -22
34 9 24 8 37 -3 62 -13 30 -13 30 -14 5 -1 -16 -18 -44 -45 -73 -42 -46 -45
-47 -55 -28 -20 37 -14 60 17 64 19 2 27 9 28 23 2 41 4 45 25 45 20 0 20 2 7
22 -18 27 -38 35 -38 15 0 -15 -47 -41 -53 -29 -2 4 -7 20 -11 36 -5 22 -10
26 -19 17 -18 -18 -37 -13 -37 12 0 13 -5 28 -10 33 -13 13 -3 44 14 44 6 0
28 -16 50 -35z m671 -726 c-24 -45 -185 -153 -193 -129 -2 6 14 30 35 53 21
23 45 57 52 75 13 31 16 32 67 32 l55 0 -16 -31z m135 27 c0 -11 -19 -15 -25
-6 -3 5 1 10 9 10 9 0 16 -2 16 -4z m-369 -199 c-8 -8 -11 -7 -11 4 0 20 13
34 18 19 3 -7 -1 -17 -7 -23z"/>
<path d="M9395 3734 c-360 -62 -1052 -134 -1292 -134 -34 0 -65 -5 -68 -10 -7
-12 24 -261 34 -271 7 -7 455 31 677 58 l150 19 -91 -91 c-108 -107 -171 -193
-225 -308 -54 -115 -73 -201 -68 -309 4 -77 9 -96 46 -171 82 -166 237 -277
482 -345 108 -30 239 -57 244 -51 5 7 84 264 82 266 -1 2 -54 12 -117 22 -205
35 -294 73 -367 156 -99 113 -95 261 12 448 140 246 354 408 601 456 55 10
116 22 136 25 l36 6 -19 113 c-25 155 -26 157 -46 156 -9 -1 -102 -17 -207
-35z"/>
<path d="M7587 3716 l-57 -43 82 -106 81 -105 64 51 c39 32 62 56 58 65 -8 21
-149 180 -160 181 -5 0 -36 -19 -68 -43z"/>
<path d="M4347 3593 c-60 -283 -82 -522 -67 -718 5 -66 10 -123 10 -127 0 -5
-9 -8 -19 -8 -21 0 -261 89 -390 144 -46 20 -89 35 -94 33 -16 -5 42 -41 108
-67 33 -13 97 -43 143 -67 45 -24 96 -43 112 -43 21 0 40 -11 66 -37 l37 -37
15 22 c20 31 29 28 36 -15 13 -77 71 -230 107 -284 48 -71 148 -164 195 -179
55 -18 127 -8 175 26 83 57 196 223 263 387 20 48 34 92 31 97 -3 6 0 10 7 10
7 1 -4 7 -25 14 -31 11 -117 71 -171 117 -5 5 3 13 17 20 14 6 23 17 21 23 -3
8 33 9 133 5 159 -8 234 -20 298 -48 l45 -20 44 29 c24 16 49 37 56 45 7 9 26
25 41 36 l28 20 30 -93 c25 -80 53 -184 75 -280 l6 -27 65 24 c65 25 81 24 48
-1 -17 -12 -16 -13 4 -14 16 0 24 7 29 24 4 18 20 30 65 46 32 12 59 27 59 32
0 6 -7 37 -16 71 -8 33 -13 72 -9 86 3 14 2 21 -2 14 -5 -7 -30 52 -61 149
l-54 160 39 31 c67 54 183 180 212 232 25 45 81 175 81 189 0 3 -6 6 -14 6 -9
0 -18 -19 -25 -50 -26 -122 -121 -254 -259 -359 l-42 -33 -16 39 c-8 21 -52
113 -96 205 l-81 166 -122 -60 -122 -61 49 -106 c57 -122 138 -324 138 -344 0
-8 -35 -40 -77 -72 l-78 -58 -42 12 c-85 22 -241 36 -398 35 -136 -1 -176 -5
-268 -28 -60 -14 -116 -26 -124 -26 -14 0 -15 19 -10 158 6 174 40 399 80 523
l24 76 -126 38 c-69 21 -133 40 -141 42 -12 3 -21 -22 -43 -124z m527 -705
c-11 -13 -37 -61 -58 -108 -75 -169 -109 -210 -160 -190 -31 11 -66 82 -85
168 -17 81 -15 89 24 102 59 19 207 48 254 49 l44 1 -19 -22z"/>
<path d="M2986 3689 c-55 -13 -146 -64 -203 -113 -27 -22 -145 -140 -262 -261
-118 -121 -217 -221 -220 -223 -4 -1 -71 38 -151 88 -79 49 -152 90 -162 90
-21 0 -242 -286 -242 -315 -1 -17 77 -71 253 -174 11 -6 -12 -38 -93 -130 -58
-67 -106 -127 -106 -135 0 -22 286 -256 312 -255 18 0 49 35 133 145 61 79
114 144 118 144 21 0 477 -334 735 -537 107 -84 147 -110 160 -105 10 4 60 56
112 116 104 121 94 119 135 27 15 -33 15 -36 -13 -70 -73 -91 -76 -134 -15
-247 l35 -66 -50 -57 c-47 -54 -122 -184 -122 -211 0 -7 -24 9 -52 36 -114
106 -238 156 -392 156 -272 2 -559 -224 -646 -507 -58 -190 -26 -409 82 -571
57 -86 130 -149 226 -196 61 -30 75 -33 158 -33 87 0 95 2 135 30 98 69 135
171 126 350 -8 171 -65 337 -193 558 -25 43 -44 81 -41 83 18 18 128 45 167
42 83 -8 132 -47 88 -69 -10 -5 -26 -13 -35 -18 -20 -9 -28 -49 -15 -69 5 -7
40 -21 78 -31 53 -15 77 -28 102 -55 38 -42 42 -43 42 -13 -1 30 -68 71 -143
88 -46 10 -59 17 -63 35 -8 30 4 47 27 41 10 -3 25 3 35 14 9 10 22 19 29 19
22 0 98 -85 120 -135 40 -90 40 -105 0 -207 -21 -51 -48 -135 -61 -187 -13
-52 -26 -97 -29 -99 -10 -11 -4 55 11 118 8 36 17 74 18 85 2 11 11 46 20 78
10 31 16 62 14 68 -5 16 -65 -186 -73 -246 -11 -89 -8 -142 9 -166 9 -13 16
-20 16 -16 0 4 14 0 30 -8 28 -14 30 -19 24 -50 -4 -21 -2 -35 4 -35 5 0 12
14 16 31 l6 31 46 -27 c29 -17 54 -25 67 -21 41 11 136 183 168 304 23 86 28
230 11 302 -6 24 -9 46 -7 48 11 11 237 -180 269 -228 23 -36 28 -38 61 -33
23 4 35 2 35 -6 0 -6 12 -11 26 -11 21 0 25 -4 21 -20 -3 -11 -1 -23 4 -26 5
-3 7 -9 4 -14 -9 -15 23 -31 75 -37 46 -5 55 -11 88 -52 58 -72 132 -145 139
-137 4 4 -25 39 -64 79 -38 40 -85 98 -102 130 -34 61 -42 69 -34 37 7 -26
-13 -26 -27 1 -7 11 -18 18 -25 15 -7 -2 -37 20 -67 52 -40 42 -58 70 -66 104
-7 26 -16 50 -22 53 -17 11 -11 -21 14 -76 l25 -53 -22 -12 c-19 -10 -25 -8
-47 19 -33 40 -68 74 -119 116 -30 23 -40 38 -36 50 4 9 11 61 16 116 11 124
67 395 85 415 12 12 14 11 14 -8 0 -29 28 -72 47 -72 13 0 14 -20 10 -132 -7
-160 4 -96 27 168 17 192 56 377 86 409 19 20 55 95 45 95 -2 0 -11 -13 -20
-30 -9 -16 -20 -30 -25 -30 -14 0 -2 46 24 90 l20 35 -21 -18 c-25 -22 -77
-53 -116 -70 -15 -6 -27 -18 -26 -27 3 -32 -2 -38 -41 -54 -32 -13 -40 -21
-40 -42 0 -18 4 -25 14 -21 8 3 21 -2 30 -12 22 -24 20 -62 -3 -68 -11 -3 -21
-17 -25 -36 -3 -17 -13 -38 -22 -48 -14 -16 -14 -18 3 -23 30 -10 68 -65 53
-79 -8 -9 -16 -6 -29 12 l-18 24 -24 -32 c-12 -17 -27 -31 -33 -31 -6 0 -5 5
2 12 7 7 12 18 12 26 0 8 -13 0 -30 -18 -24 -26 -28 -35 -19 -47 10 -11 7 -21
-11 -46 -26 -35 -13 -28 42 22 15 13 30 23 32 20 2 -2 -12 -50 -30 -107 -25
-78 -35 -128 -40 -210 -4 -64 -12 -116 -20 -129 -8 -13 -10 -23 -4 -23 5 0 10
-4 10 -10 0 -18 -130 72 -136 94 -3 12 -25 53 -49 91 l-44 70 42 80 c44 85
132 185 164 185 16 0 16 2 -4 18 -27 21 -79 124 -88 173 -5 26 -2 47 10 70 21
41 54 79 69 79 16 0 86 -59 86 -73 0 -6 -12 -22 -27 -34 l-28 -23 40 22 c22
12 42 23 44 25 2 1 -20 25 -50 52 -37 34 -65 71 -89 120 l-34 71 21 22 c24 28
33 51 25 65 -4 5 -32 28 -64 51 -50 36 -58 48 -77 104 l-20 63 5 -47 c3 -27 1
-48 -4 -48 -15 0 -32 71 -44 193 -6 64 -15 117 -20 117 -12 0 -10 -31 8 -135
29 -169 53 -176 -311 87 -176 126 -328 236 -338 243 -16 11 -4 27 133 171 83
88 154 158 158 157 3 -1 32 -100 64 -219 32 -120 60 -220 63 -222 2 -2 14 -4
27 -4 30 0 369 101 386 115 13 10 12 36 -5 107 -6 23 -5 24 11 11 14 -12 13
-7 -4 22 -18 31 -49 124 -50 150 0 22 34 0 78 -50 28 -32 65 -66 84 -77 l33
-18 -30 26 c-16 15 -40 34 -52 42 -13 9 -23 22 -23 28 0 14 -46 59 -76 74 -15
8 -27 36 -47 114 -31 117 -89 244 -140 303 -68 79 -185 118 -281 94z m187 -52
c23 -14 52 -36 64 -49 39 -42 92 -139 117 -217 30 -91 120 -481 113 -488 -5
-4 -363 -113 -373 -113 -2 0 -4 5 -4 12 0 29 -124 468 -132 466 -5 -2 -87 -86
-184 -187 -140 -148 -172 -187 -162 -197 7 -7 209 -153 448 -324 239 -172 437
-314 439 -316 2 -1 -52 -67 -120 -146 -67 -79 -124 -144 -125 -146 -1 -2 -69
49 -151 114 -303 239 -735 550 -751 540 -7 -4 -170 -212 -238 -305 -3 -3 -223
178 -268 220 -19 17 -16 21 92 144 62 69 112 129 112 133 0 4 -64 44 -141 90
-92 55 -137 87 -132 95 26 45 207 277 215 277 5 0 78 -43 161 -96 l152 -95 44
48 c142 153 458 465 505 498 115 79 230 94 319 42z m649 -1633 c21 -21 25 -31
17 -45 -5 -11 -16 -19 -24 -19 -17 0 -20 16 -5 25 6 3 10 11 10 18 0 6 -15 -4
-34 -22 -25 -25 -39 -31 -55 -26 -12 3 -21 11 -21 17 0 12 61 75 74 77 6 0 22
-11 38 -25z m-14 -103 c5 -32 -5 -52 -22 -45 -21 8 -30 42 -15 60 16 20 33 13
37 -15z m-24 -68 c11 -14 15 -23 9 -20 -14 9 -43 -2 -43 -15 0 -6 11 -7 25 -4
28 7 32 -5 15 -49 -9 -25 -11 -25 -34 -10 -29 19 -40 45 -26 59 5 5 10 20 10
31 0 42 17 45 44 8z m-740 -289 c88 -21 153 -61 231 -139 76 -76 131 -169 161
-270 22 -78 22 -228 0 -315 -20 -77 -85 -212 -124 -259 l-28 -34 -80 42 c-43
22 -85 45 -93 50 -10 7 -4 22 29 71 88 130 114 220 99 340 -18 145 -95 255
-219 314 -53 25 -77 31 -130 30 -64 -1 -157 -31 -178 -58 -6 -7 15 -53 59
-130 130 -226 184 -404 177 -584 -6 -154 -44 -232 -133 -273 -157 -72 -391 53
-498 266 -39 78 -57 152 -63 255 -15 253 113 487 342 625 147 89 282 110 448
69z m170 -616 c-8 -50 -45 -147 -69 -180 -17 -23 -17 -23 -11 12 6 30 60 181
73 203 10 17 13 4 7 -35z"/>
<path d="M2506 1128 c-75 -131 -75 -282 0 -429 45 -90 154 -176 193 -152 73
45 52 241 -46 438 -48 96 -103 185 -113 185 -5 0 -20 -19 -34 -42z m84 -84
c57 -100 107 -235 121 -326 10 -62 9 -79 -4 -110 -19 -46 -33 -47 -81 -9 -50
40 -71 68 -109 148 -29 63 -32 76 -32 169 0 86 4 108 24 152 14 29 27 52 31
52 4 0 26 -34 50 -76z"/>
<path d="M12860 3620 c0 -27 -3 -30 -31 -30 -52 0 -28 -24 30 -30 l52 -5 -26
-35 c-14 -19 -42 -49 -63 -67 -28 -24 -34 -34 -26 -43 9 -9 18 -8 38 5 l26 17
0 -76 c0 -69 2 -76 20 -76 18 0 20 7 20 75 0 73 1 75 20 63 17 -11 22 -10 30
2 8 12 10 9 10 -12 0 -21 5 -28 20 -28 11 0 20 5 20 10 0 6 9 10 20 10 16 0
19 -8 22 -57 3 -50 6 -58 23 -58 17 0 20 8 23 58 3 49 6 57 22 57 11 0 20 -4
20 -10 0 -5 9 -10 20 -10 19 0 20 7 20 110 l0 110 -39 0 c-33 0 -40 4 -43 23
-2 14 -10 22 -23 22 -13 0 -21 -8 -23 -22 -2 -16 -10 -23 -26 -23 -13 0 -44
-3 -70 -6 l-46 -7 0 32 c0 24 -4 31 -20 31 -16 0 -20 -7 -20 -30z m180 -75 c0
-18 -5 -25 -20 -25 -15 0 -20 7 -20 25 0 18 5 25 20 25 15 0 20 -7 20 -25z
m90 0 c0 -18 -5 -25 -20 -25 -15 0 -20 7 -20 25 0 18 5 25 20 25 15 0 20 -7
20 -25z m-170 -45 c0 -58 -1 -60 -21 -50 -31 17 -32 33 -7 73 13 20 24 36 26
37 1 0 2 -27 2 -60z m80 -45 c0 -18 -5 -25 -20 -25 -15 0 -20 7 -20 25 0 18 5
25 20 25 15 0 20 -7 20 -25z m90 0 c0 -18 -5 -25 -20 -25 -15 0 -20 7 -20 25
0 18 5 25 20 25 15 0 20 -7 20 -25z"/>
<path d="M13290 3620 c0 -27 -3 -30 -30 -30 -20 0 -30 -5 -30 -15 0 -11 12
-15 50 -15 28 0 50 -4 50 -9 0 -12 -46 -67 -85 -103 -24 -21 -27 -29 -18 -39
10 -10 17 -9 32 5 20 18 20 17 23 -55 3 -66 5 -74 23 -74 18 0 20 8 23 74 3
71 4 73 22 56 17 -16 19 -16 30 4 6 12 7 21 3 21 -4 0 -19 9 -32 19 l-24 18
26 34 c37 50 38 73 5 77 -24 3 -28 8 -28 33 0 22 -5 29 -20 29 -16 0 -20 -7
-20 -30z"/>
<path d="M13460 3590 l0 -60 -40 0 c-29 0 -40 -4 -40 -15 0 -11 11 -15 40 -15
l40 0 0 -85 0 -85 -55 0 c-48 0 -55 -2 -55 -20 0 -19 7 -20 130 -20 123 0 130
1 130 20 0 18 -7 20 -55 20 l-55 0 0 85 0 85 50 0 c38 0 50 4 50 15 0 11 -12
15 -50 15 l-50 0 0 60 c0 53 -2 60 -20 60 -18 0 -20 -7 -20 -60z"/>
<path d="M7436 3605 c-86 -59 -86 -49 4 -169 l81 -107 37 30 c20 17 50 41 67
54 l29 25 -34 44 c-94 119 -125 157 -130 157 -3 0 -27 -15 -54 -34z"/>
<path d="M12445 3629 c-4 -6 -4 -25 -1 -44 6 -32 6 -33 -34 -40 -31 -5 -40
-11 -40 -26 0 -18 5 -20 45 -14 50 8 43 21 73 -129 17 -88 26 -103 49 -88 8 5
5 36 -11 119 l-23 111 74 11 c109 16 109 16 88 -16 -10 -16 -29 -40 -43 -55
-21 -23 -23 -30 -12 -43 12 -14 16 -13 38 7 55 52 106 148 85 161 -5 3 -54 -1
-108 -9 -138 -19 -131 -20 -139 26 -6 39 -27 53 -41 29z"/>
<path d="M11247 3624 c-4 -4 -7 -76 -7 -159 l0 -152 59 -7 c69 -8 100 3 124
44 21 35 22 112 2 150 -17 33 -50 45 -100 37 l-34 -6 -3 47 c-2 33 -8 48 -18
50 -9 1 -19 0 -23 -4z m132 -138 c18 -22 23 -78 9 -105 -18 -33 -40 -45 -71
-37 -26 6 -27 9 -27 71 0 50 4 66 18 74 25 15 58 13 71 -3z"/>
<path d="M12215 3619 c-16 -5 -76 -14 -133 -20 -86 -10 -102 -15 -100 -28 3
-13 15 -15 71 -13 l67 4 0 -31 0 -31 -85 0 c-84 0 -85 0 -85 -25 0 -25 1 -25
85 -25 85 0 85 0 85 -26 0 -32 -52 -83 -92 -91 -33 -7 -40 -14 -28 -33 7 -11
15 -12 51 -1 55 17 105 67 114 114 l7 37 74 0 c72 0 74 1 74 25 0 24 -2 25
-75 25 l-75 0 0 33 c0 33 2 34 55 46 57 13 63 19 43 39 -14 14 -12 13 -53 1z"/>
<path d="M6154 3569 c3 -17 6 -35 6 -40 0 -5 5 -9 10 -9 11 0 13 39 4 64 -11
29 -27 17 -20 -15z"/>
<path d="M11496 3518 c4 -13 24 -62 44 -110 l38 -86 -19 -42 c-24 -54 -24 -62
3 -58 17 2 33 32 85 151 34 82 63 153 63 159 0 5 -10 8 -22 6 -17 -2 -29 -20
-51 -75 -16 -40 -33 -71 -37 -68 -5 3 -21 37 -36 75 -23 60 -31 70 -51 70 -21
0 -23 -3 -17 -22z"/>
<path d="M6082 3358 c-35 -51 -59 -103 -42 -93 6 3 17 21 26 38 9 18 25 42 36
54 11 12 18 27 16 34 -2 7 -18 -7 -36 -33z"/>
<path d="M6145 3330 c3 -5 10 -10 16 -10 5 0 9 5 9 10 0 6 -7 10 -16 10 -8 0
-12 -4 -9 -10z"/>
<path d="M5997 3122 c-6 -43 -19 -113 -32 -169 -3 -13 -1 -23 3 -23 5 0 17 37
27 83 25 118 28 144 17 151 -5 3 -12 -15 -15 -42z"/>
<path d="M7328 3133 l-248 -3 0 -125 0 -125 330 0 330 0 0 69 c0 37 -3 96 -6
130 l-7 61 -76 -2 c-42 -2 -187 -4 -323 -5z"/>
<path d="M6301 2974 c0 -11 3 -14 6 -6 3 7 2 16 -1 19 -3 4 -6 -2 -5 -13z"/>
<path d="M6312 2915 c0 -22 4 -53 8 -70 7 -27 8 -28 8 -5 0 14 -3 45 -7 70
l-8 45 -1 -40z"/>
<path d="M6010 2930 c0 -5 4 -10 9 -10 6 0 13 5 16 10 3 6 -1 10 -9 10 -9 0
-16 -4 -16 -10z"/>
<path d="M6050 2920 c0 -6 -11 -22 -25 -35 l-24 -25 32 -16 c31 -16 32 -16 15
2 -15 18 -15 20 3 43 21 26 24 41 9 41 -5 0 -10 -5 -10 -10z"/>
<path d="M3607 2832 c19 -35 63 -82 63 -66 0 5 -19 29 -41 54 -36 40 -39 41
-22 12z"/>
<path d="M5028 2842 c-10 -4 20 -7 66 -7 46 0 79 3 73 7 -15 9 -116 9 -139 0z"/>
<path d="M1045 2659 c-363 -293 -957 -833 -963 -875 -3 -20 18 -35 150 -113
84 -50 161 -91 171 -91 11 0 97 80 210 196 l191 195 33 -108 c18 -59 33 -113
33 -119 0 -5 -130 -109 -290 -230 -159 -120 -290 -226 -290 -234 0 -8 39 -82
86 -163 64 -110 91 -147 105 -147 11 0 128 91 264 206 134 113 247 206 251
207 3 1 67 -148 141 -330 90 -220 141 -334 152 -338 10 -3 98 31 197 76 98 44
185 83 192 86 6 3 12 15 12 27 0 11 -77 182 -170 379 -94 197 -168 362 -165
367 3 5 129 92 281 195 151 103 278 193 281 201 6 17 -146 254 -163 254 -7 0
-120 -66 -251 -146 -131 -81 -252 -155 -269 -165 l-30 -18 -57 136 c-32 75
-54 139 -50 143 4 4 92 80 194 168 103 89 189 168 192 175 3 8 2 19 -2 25 -6
10 -147 76 -263 123 l-48 19 -125 -101z m300 -4 c61 -26 111 -49 113 -50 1 -1
-93 -86 -210 -187 -117 -102 -226 -197 -243 -211 l-30 -27 45 19 c24 11 46 18
48 17 1 -2 29 -66 62 -142 32 -77 64 -138 69 -137 6 2 129 75 273 164 145 89
266 163 270 166 6 3 74 -91 126 -178 l22 -37 -290 -196 -289 -197 23 -52 c13
-29 72 -153 131 -277 59 -124 129 -271 155 -326 l47 -101 -185 -82 c-101 -45
-186 -80 -187 -79 -1 2 -64 157 -141 346 -76 188 -141 342 -145 342 -6 0 -48
-36 -375 -311 l-152 -128 -81 139 c-44 77 -81 143 -80 147 0 5 111 91 246 193
136 102 268 202 294 222 l47 37 -44 142 c-24 78 -45 143 -47 146 -2 2 -96 -91
-209 -206 l-204 -209 -148 88 c-81 48 -146 91 -144 95 15 39 625 586 932 837
129 105 131 106 161 94 16 -7 80 -35 140 -61z"/>
<path d="M5110 2720 c8 -5 20 -10 25 -10 6 0 3 5 -5 10 -8 5 -19 10 -25 10 -5
0 -3 -5 5 -10z"/>
<path d="M3687 2700 c-3 -10 1 -24 9 -31 11 -9 14 -7 14 14 0 32 -16 44 -23
17z"/>
<path d="M6861 2651 c-78 -169 -40 -338 93 -416 93 -55 299 -76 526 -55 128
11 299 35 304 42 3 3 -21 252 -23 254 -1 0 -40 -6 -88 -13 -112 -16 -404 -28
-466 -19 -58 9 -107 47 -107 84 0 14 10 45 21 69 12 24 20 45 18 47 -2 1 -53
17 -114 36 -60 18 -115 35 -121 37 -6 2 -25 -28 -43 -66z"/>
<path d="M5157 2699 c7 -7 15 -10 18 -7 3 3 -2 9 -12 12 -14 6 -15 5 -6 -5z"/>
<path d="M5190 2686 c0 -2 16 -13 36 -25 19 -12 32 -16 29 -11 -7 11 -65 43
-65 36z"/>
<path d="M6190 2678 c0 -4 4 -18 10 -32 5 -14 5 -28 1 -31 -5 -3 -14 9 -20 26
-6 17 -15 28 -20 25 -12 -8 -3 -42 15 -57 28 -23 11 -78 -28 -91 -9 -3 -9 -13
-1 -39 l11 -34 1 33 c1 17 5 32 11 32 15 0 60 77 60 102 0 20 -39 84 -40 66z"/>
<path d="M3629 2634 l-34 -36 30 -24 c32 -26 50 -30 60 -14 3 6 -2 10 -12 10
-11 0 -28 6 -39 14 -18 14 -18 15 10 45 16 17 27 33 25 36 -3 2 -21 -11 -40
-31z"/>
<path d="M3735 2601 c49 -100 190 -261 230 -261 27 0 15 15 -59 72 -45 34 -85
76 -112 118 -24 36 -50 74 -59 85 -14 18 -14 16 0 -14z"/>
<path d="M3342 2520 c0 -14 2 -19 5 -12 2 6 2 18 0 25 -3 6 -5 1 -5 -13z"/>
<path d="M4146 2490 c-31 -35 -45 -60 -32 -60 8 0 78 91 74 96 -3 2 -22 -14
-42 -36z"/>
<path d="M3601 2483 c-30 -37 -48 -89 -38 -115 2 -7 9 5 16 27 6 22 22 59 35
83 14 23 23 42 21 42 -2 0 -17 -17 -34 -37z"/>
<path d="M5410 2507 c0 -2 14 -16 32 -33 l32 -29 -25 32 c-20 27 -39 41 -39
30z"/>
<path d="M3351 2474 c0 -11 3 -14 6 -6 3 7 2 16 -1 19 -3 4 -6 -2 -5 -13z"/>
<path d="M5811 2461 c8 -11 43 -62 78 -113 74 -107 90 -127 66 -78 -20 39
-144 210 -152 210 -3 0 1 -9 8 -19z"/>
<path d="M6150 2414 c0 -8 5 -12 10 -9 6 3 10 10 10 16 0 5 -4 9 -10 9 -5 0
-10 -7 -10 -16z"/>
<path d="M3559 2273 c-14 -38 -6 -50 40 -58 23 -4 41 -12 41 -18 0 -20 20 17
20 37 0 15 -3 16 -14 7 -8 -7 -27 -11 -43 -9 -25 3 -28 7 -25 36 3 39 -5 41
-19 5z"/>
<path d="M5580 2297 c0 -14 31 -69 36 -64 3 3 -4 20 -15 38 -12 19 -21 30 -21
26z"/>
<path d="M5186 2200 c10 -79 43 -253 48 -258 3 -3 6 10 6 29 l0 34 40 -45 c21
-25 39 -49 40 -53 0 -5 -21 -7 -47 -5 -38 2 -48 0 -48 -12 0 -8 5 -14 10 -13
6 0 31 4 56 8 l45 7 93 -121 c81 -105 111 -136 111 -116 0 3 -24 34 -52 69
-118 143 -120 146 -101 146 13 0 10 5 -11 18 -48 29 -147 193 -180 297 -11 38
-14 42 -10 15z"/>
<path d="M4522 2200 c0 -14 2 -19 5 -12 2 6 2 18 0 25 -3 6 -5 1 -5 -13z"/>
<path d="M5983 2210 c9 -30 71 -169 74 -166 5 5 -35 106 -58 146 -11 19 -18
28 -16 20z"/>
<path d="M3611 2143 c-19 -18 -21 -23 -8 -23 9 0 23 -9 31 -21 13 -20 14 -18
9 22 -3 24 -6 44 -7 45 0 0 -12 -10 -25 -23z"/>
<path d="M4507 2096 c-7 -81 -23 -143 -83 -329 -19 -60 -33 -114 -31 -120 3
-7 10 2 16 18 6 17 14 37 18 45 4 8 8 24 9 35 4 30 49 136 59 138 4 1 13 -16
19 -38 10 -33 11 -10 8 125 -4 207 -6 224 -15 126z"/>
<path d="M3738 2109 c-33 -33 -35 -39 -18 -39 12 0 25 10 32 25 6 14 15 25 19
25 4 0 9 7 13 15 9 25 -7 16 -46 -26z"/>
<path d="M5680 2084 c0 -15 68 -210 69 -197 1 11 -58 194 -65 202 -2 2 -4 0
-4 -5z"/>
<path d="M3650 2055 c0 -8 4 -15 9 -15 5 0 14 7 21 15 10 13 9 15 -9 15 -12 0
-21 -6 -21 -15z"/>
<path d="M5516 1938 c13 -43 23 -68 28 -68 3 0 -2 20 -11 45 -15 45 -31 65
-17 23z"/>
<path d="M10040 1927 c-14 -12 -41 -34 -59 -48 l-34 -27 78 -91 77 -91 59 47
59 46 -27 36 c-49 66 -115 146 -122 148 -3 1 -17 -8 -31 -20z"/>
<path d="M13110 1849 c-30 -22 -59 -44 -64 -49 -5 -5 21 -45 65 -96 41 -49 79
-94 84 -101 8 -10 24 -4 78 32 37 25 67 48 67 51 0 5 -171 205 -174 204 -1 -1
-26 -19 -56 -41z"/>
<path d="M13379 1849 c-30 -22 -54 -44 -54 -49 0 -11 147 -199 155 -199 3 -1
36 22 73 49 l68 51 -88 94 c-48 52 -90 95 -93 95 -4 0 -31 -18 -61 -41z"/>
<path d="M5099 1830 c0 -30 -6 -90 -13 -132 -7 -43 -9 -78 -4 -78 4 0 8 10 8
23 0 37 20 98 31 91 12 -7 0 127 -12 141 -5 5 -9 -14 -10 -45z"/>
<path d="M5751 1854 c0 -11 3 -14 6 -6 3 7 2 16 -1 19 -3 4 -6 -2 -5 -13z"/>
<path d="M9836 1814 c-31 -25 -56 -49 -56 -53 0 -4 12 -18 26 -32 14 -13 35
-37 46 -53 l21 -28 -24 12 c-13 7 -37 22 -53 33 -26 18 -29 19 -38 4 -8 -16
-64 -17 -648 -17 l-640 0 0 -135 0 -135 575 -2 574 -3 -29 -87 c-122 -364
-402 -665 -813 -874 -61 -31 -114 -58 -115 -60 -2 -1 40 -59 94 -128 l97 -125
66 36 c414 229 672 487 857 854 59 118 122 275 170 422 32 97 36 121 26 137
-10 17 -6 23 33 51 25 18 45 36 45 41 0 11 -142 188 -151 188 -4 0 -32 -20
-63 -46z"/>
<path d="M3543 1834 c-7 -18 12 -64 27 -64 6 0 3 11 -6 25 -9 14 -14 32 -10
40 3 8 3 15 0 15 -2 0 -7 -7 -11 -16z"/>
<path d="M6132 1840 c0 -8 4 -26 8 -40 6 -20 8 -21 8 -5 0 11 -3 29 -8 40 -5
12 -8 14 -8 5z"/>
<path d="M4681 1824 c0 -11 3 -14 6 -6 3 7 2 16 -1 19 -3 4 -6 -2 -5 -13z"/>
<path d="M5545 1821 c4 -13 11 -44 16 -69 l8 -47 -3 53 c-3 58 7 75 25 40 6
-13 52 -62 103 -109 l91 -86 6 -79 6 -79 1 100 c1 96 -14 227 -17 148 -1 -21
-6 -33 -15 -33 -23 0 -111 75 -147 124 -18 25 -36 46 -40 46 -4 0 -15 3 -24 7
-14 5 -16 2 -10 -16z"/>
<path d="M4620 1803 c0 -5 7 -29 15 -54 7 -24 19 -64 25 -88 6 -23 13 -41 15
-39 5 5 -39 176 -48 184 -4 4 -7 3 -7 -3z"/>
<path d="M4502 1775 c-50 -34 -50 -37 1 -18 26 9 47 21 47 25 0 17 -17 14 -48
-7z"/>
<path d="M4691 1784 c0 -11 3 -14 6 -6 3 7 2 16 -1 19 -3 4 -6 -2 -5 -13z"/>
<path d="M6182 1790 c0 -8 4 -26 8 -40 6 -20 8 -21 8 -5 0 11 -3 29 -8 40 -5
12 -8 14 -8 5z"/>
<path d="M12521 1674 c-122 -249 -288 -470 -480 -638 -30 -26 -50 -50 -45 -55
19 -16 190 -157 206 -170 15 -11 23 -9 59 20 60 47 230 239 307 346 l67 92
247 0 247 1 -34 -81 c-132 -314 -374 -574 -733 -788 l-130 -78 106 -115 107
-115 45 22 c143 72 349 232 495 386 161 169 272 332 380 554 78 161 150 354
137 367 -6 6 -57 39 -113 74 -88 53 -106 61 -115 49 -9 -12 -51 -15 -247 -15
l-235 0 35 81 c19 44 33 82 31 83 -3 2 -228 90 -259 101 -12 4 -30 -24 -78
-121z"/>
<path d="M6151 1754 c0 -11 3 -14 6 -6 3 7 2 16 -1 19 -3 4 -6 -2 -5 -13z"/>
<path d="M6430 1766 c0 -11 43 -76 47 -72 3 3 -5 21 -17 40 -20 33 -30 43 -30
32z"/>
<path d="M4123 1675 c0 -44 2 -61 4 -37 2 23 2 59 0 80 -2 20 -4 1 -4 -43z"/>
<path d="M4696 1735 c4 -8 10 -15 15 -15 4 0 6 7 3 15 -4 8 -10 15 -15 15 -4
0 -6 -7 -3 -15z"/>
<path d="M4551 1730 c0 -8 4 -22 9 -30 12 -18 12 -2 0 25 -6 13 -9 15 -9 5z"/>
<path d="M6161 1719 c1 -29 38 -153 38 -129 1 14 -6 49 -13 79 -15 53 -27 77
-25 50z"/>
<path d="M6201 1704 c0 -11 3 -14 6 -6 3 7 2 16 -1 19 -3 4 -6 -2 -5 -13z"/>
<path d="M4330 1665 c-7 -9 -11 -18 -8 -20 3 -3 11 1 18 10 7 9 11 18 8 20 -3
3 -11 -1 -18 -10z"/>
<path d="M4615 1600 c9 -16 18 -30 21 -30 2 0 -2 14 -11 30 -9 17 -18 30 -21
30 -2 0 2 -13 11 -30z"/>
<path d="M4302 1554 c-26 -53 -51 -56 -64 -6 -13 48 -28 39 -28 -18 0 -31 -8
-67 -22 -96 -21 -42 -23 -44 -29 -22 -15 52 -9 -34 6 -92 19 -74 72 -193 83
-186 5 3 23 -4 41 -15 33 -20 51 -18 51 5 0 6 38 40 83 74 99 73 169 96 262
87 53 -5 58 -4 43 8 -10 8 -18 19 -18 25 0 14 -54 28 -135 36 -52 5 -66 3
-107 -19 -26 -14 -62 -26 -80 -26 -18 -1 -25 -3 -15 -6 9 -2 17 -6 17 -9 0 -6
-130 -134 -136 -134 -13 0 -64 133 -64 167 0 30 35 165 47 182 2 2 11 -3 21
-12 25 -23 29 -22 36 13 3 17 16 41 30 55 21 21 24 35 6 35 -3 0 -16 -21 -28
-46z m208 -254 c0 -9 -51 -40 -66 -40 -4 0 3 11 16 25 24 25 50 33 50 15z
m-165 -125 c-16 -14 -34 -25 -40 -25 -5 1 4 12 20 25 17 14 35 25 40 25 6 -1
-3 -12 -20 -25z"/>
<path d="M4730 1587 c0 -9 4 -18 10 -22 13 -8 60 5 60 17 0 6 -10 8 -22 5 -12
-4 -28 -1 -35 5 -10 8 -13 7 -13 -5z"/>
<path d="M10420 920 l0 -670 145 0 145 0 0 50 0 50 395 0 395 0 0 -50 0 -50
145 0 145 0 0 670 0 670 -685 0 -685 0 0 -670z m1080 50 l0 -350 -395 0 -395
0 0 350 0 350 395 0 395 0 0 -350z"/>
<path d="M4132 1560 c0 -14 2 -19 5 -12 2 6 2 18 0 25 -3 6 -5 1 -5 -13z"/>
<path d="M6203 1525 c0 -22 2 -30 4 -17 2 12 2 30 0 40 -3 9 -5 -1 -4 -23z"/>
<path d="M4172 1525 c0 -16 2 -22 5 -12 2 9 2 23 0 30 -3 6 -5 -1 -5 -18z"/>
<path d="M4370 1525 c0 -8 5 -15 10 -15 6 0 10 7 10 15 0 8 -4 15 -10 15 -5 0
-10 -7 -10 -15z"/>
<path d="M5890 1496 c0 -59 -26 -178 -49 -230 -24 -53 -113 -151 -160 -176
-29 -15 -32 -19 -14 -20 11 0 45 19 74 41 l52 42 -5 -47 c-9 -77 -59 -165
-125 -219 -67 -55 -266 -155 -368 -187 -91 -28 -135 -47 -135 -60 0 -13 23
-13 37 1 6 6 18 9 26 7 12 -2 6 -25 -34 -118 -27 -63 -54 -119 -60 -125 -13
-13 -79 58 -143 153 l-45 67 35 3 c63 6 35 19 -56 26 -204 15 -398 65 -466
120 -42 33 -88 101 -79 115 3 6 22 11 41 11 37 0 48 14 12 16 -13 1 -34 3 -48
4 -52 4 -134 36 -171 68 -21 18 -55 60 -75 93 -40 64 -49 73 -34 34 21 -55 41
-83 105 -140 48 -44 74 -78 100 -130 18 -38 54 -94 79 -123 25 -29 50 -60 54
-68 7 -13 14 -12 47 10 38 26 75 34 75 16 0 -5 -16 -20 -35 -32 -19 -13 -35
-26 -35 -30 0 -16 43 -7 78 17 44 30 56 32 43 6 -12 -21 -21 -277 -10 -259 4
6 10 62 14 125 4 62 12 116 18 120 17 10 177 13 177 3 0 -30 147 -217 306
-392 19 -20 34 -40 34 -44 0 -4 -12 -37 -26 -73 -35 -86 -45 -121 -34 -121 5
0 14 17 20 38 7 20 30 77 51 125 35 77 137 355 179 487 15 46 35 58 68 45 9
-4 35 -7 57 -7 32 -1 39 3 37 16 -4 20 39 38 83 35 51 -3 75 0 75 12 0 7 -11
8 -30 4 -35 -8 -38 3 -10 33 27 29 60 30 53 2 -4 -13 0 -20 9 -20 16 0 78 61
78 77 0 6 13 51 29 101 16 49 35 127 41 173 7 46 23 116 36 155 22 67 45 264
30 264 -3 0 -6 -20 -6 -44z m-920 -958 c24 -35 60 -81 81 -104 45 -51 62 -81
50 -89 -6 -3 -15 4 -22 17 -6 12 -45 67 -85 123 -67 92 -81 115 -70 115 2 0
23 -28 46 -62z m256 -14 c-39 -111 -123 -262 -102 -183 8 28 109 229 113 225
2 -2 -3 -20 -11 -42z"/>
<path d="M3519 1503 c-13 -16 -12 -17 4 -4 16 13 21 21 13 21 -2 0 -10 -8 -17
-17z"/>
<path d="M5425 1495 c-63 -26 -113 -58 -105 -68 3 -2 -4 -14 -14 -26 -30 -33
-13 -35 58 -7 103 42 217 33 381 -30 17 -7 65 35 59 51 -3 7 -12 11 -19 9 -8
-3 -11 -12 -8 -20 4 -10 -2 -14 -20 -14 -33 0 -44 17 -17 25 11 3 20 10 20 15
0 7 -57 31 -108 46 -7 2 -11 9 -10 16 2 10 -12 12 -54 11 -32 -1 -58 2 -58 8
0 16 -43 9 -105 -16z m171 -20 c-21 -16 -86 -21 -86 -7 0 17 14 22 59 22 43
-1 45 -2 27 -15z"/>
<path d="M4142 1470 c0 -19 2 -27 5 -17 2 9 2 25 0 35 -3 9 -5 1 -5 -18z"/>
<path d="M6182 1330 c0 -100 1 -103 13 -65 14 43 20 185 6 150 l-8 -20 -5 20
c-3 11 -6 -27 -6 -85z"/>
<path d="M3559 1408 c0 -2 -6 -48 -13 -103 -7 -55 -16 -108 -20 -117 -5 -11
-4 -18 3 -18 5 0 14 17 20 38 11 46 24 202 17 202 -3 0 -6 -1 -7 -2z"/>
<path d="M6901 1398 c-1 -16 -13 -18 -101 -18 l-100 0 0 -345 0 -344 88 -3 87
-3 -3 -60 c-1 -33 -5 -77 -8 -97 -8 -56 12 -47 23 10 l10 47 32 -68 c18 -37
38 -85 46 -107 l14 -40 -259 0 -260 0 0 -125 0 -124 131 -3 132 -3 -46 -55
c-25 -30 -41 -57 -35 -59 10 -3 32 20 98 102 10 12 25 18 43 15 l28 -3 -41
-58 c-29 -42 -36 -58 -23 -55 9 2 32 29 50 61 l34 57 714 0 715 0 0 125 0 125
-249 2 -248 3 49 129 c26 71 47 130 46 131 -2 1 -46 13 -98 26 l-95 24 188 3
187 2 0 345 0 345 -484 0 c-453 0 -485 1 -489 18 -4 16 -5 16 -6 0 -1 -16 -12
-18 -80 -18 -67 0 -80 3 -84 18 -4 16 -5 16 -6 0z m879 -363 l0 -95 -405 0
-405 0 0 88 c0 49 3 92 7 95 3 4 186 7 405 7 l398 0 0 -95z m-832 -366 c-2
-12 -13 -26 -25 -30 -21 -7 -23 -5 -23 21 0 26 4 30 26 30 20 0 25 -4 22 -21z
m77 12 c-6 -5 -20 -12 -32 -16 -17 -5 -23 -2 -23 9 0 11 10 16 32 16 19 0 28
-4 23 -9z m526 -98 c-22 -60 -48 -130 -58 -158 l-19 -50 -154 -2 c-147 -2
-153 -1 -115 13 22 8 43 18 48 23 12 12 -27 123 -73 209 l-39 72 224 0 224 0
-38 -107z"/>
<path d="M6252 1365 c0 -16 2 -22 5 -12 2 9 2 23 0 30 -3 6 -5 -1 -5 -18z"/>
<path d="M3433 1291 c4 -33 13 -51 37 -73 18 -16 34 -28 35 -26 2 2 -15 35
-37 73 l-40 70 5 -44z"/>
<path d="M6241 1317 c-2 -27 -42 -117 -52 -117 -10 0 -21 -26 -33 -74 -6 -26
-5 -28 8 -17 42 35 94 165 83 207 -4 18 -5 18 -6 1z"/>
<path d="M3801 1214 c-1 -115 21 -196 69 -254 36 -44 47 -34 26 22 -9 24 -27
93 -40 154 -14 61 -31 126 -39 145 -15 33 -15 31 -16 -67z"/>
<path d="M3761 1104 c0 -11 3 -14 6 -6 3 7 2 16 -1 19 -3 4 -6 -2 -5 -13z"/>
<path d="M5247 1091 c-21 -36 -21 -37 -1 -45 8 -3 13 -2 9 3 -6 11 4 41 15 41
4 0 11 -11 14 -25 6 -24 26 -35 26 -15 0 16 -29 70 -38 70 -4 0 -15 -13 -25
-29z"/>
<path d="M5208 1103 c7 -3 16 -2 19 1 4 3 -2 6 -13 5 -11 0 -14 -3 -6 -6z"/>
<path d="M4260 1078 c0 -18 65 -104 96 -128 18 -14 18 -14 3 5 -9 11 -35 47
-58 79 -22 33 -41 52 -41 44z"/>
<path d="M4851 1026 c-11 -13 -9 -15 13 -13 15 1 27 7 27 12 0 16 -27 17 -40
1z"/>
<path d="M5290 961 c0 -16 -3 -38 -6 -48 -3 -10 2 -7 10 7 17 28 21 70 6 70
-5 0 -10 -13 -10 -29z"/>
<path d="M6096 935 c-9 -26 -7 -32 5 -12 6 10 9 21 6 23 -2 3 -7 -2 -11 -11z"/>
<path d="M5957 873 c-39 -63 -156 -175 -221 -210 -23 -12 -35 -22 -28 -23 15
0 114 58 170 99 26 19 35 22 42 11 5 -9 15 2 30 36 25 56 51 136 46 142 -2 2
-20 -23 -39 -55z"/>
<path d="M6035 822 c-49 -76 -141 -179 -180 -200 -15 -9 -16 -11 -4 -12 23 0
137 123 194 208 26 40 46 74 44 76 -2 3 -26 -30 -54 -72z"/>
<path d="M4239 643 c16 -31 55 -61 86 -68 27 -5 28 -4 11 7 -10 7 -39 28 -63
46 -28 21 -41 26 -34 15z"/>
<path d="M5658 633 c7 -3 16 -2 19 1 4 3 -2 6 -13 5 -11 0 -14 -3 -6 -6z"/>
<path d="M4390 577 c-14 -7 -37 -20 -51 -30 -16 -10 -33 -15 -44 -11 -13 5
-16 4 -11 -4 12 -20 58 -13 94 15 29 22 38 24 53 14 21 -13 26 -2 7 17 -14 14
-15 14 -48 -1z"/>
<path d="M5675 490 c-10 -11 -13 -20 -8 -20 13 0 38 29 31 35 -3 3 -13 -4 -23
-15z"/>
<path d="M4711 400 c14 -31 19 -36 19 -24 0 6 -7 19 -16 30 -14 18 -14 18 -3
-6z"/>
<path d="M3140 253 c0 -102 36 -272 54 -252 2 2 -5 44 -15 94 -11 50 -21 123
-24 164 -6 104 -15 101 -15 -6z"/>
<path d="M4265 310 c-3 -5 -1 -10 4 -10 6 0 11 5 11 10 0 6 -2 10 -4 10 -3 0
-8 -4 -11 -10z"/>
<path d="M4577 220 c-3 -27 -13 -59 -21 -72 -8 -13 -17 -51 -21 -85 -7 -62 -7
-63 18 -63 21 0 25 6 30 37 13 87 19 233 10 233 -6 0 -13 -22 -16 -50z"/>
<path d="M5654 242 c5 -15 46 -229 46 -240 0 -2 15 -2 33 0 36 3 34 -8 24 138
-6 86 -7 89 -17 63 -13 -33 -26 -29 -56 17 -29 43 -39 51 -30 22z"/>
<path d="M4866 160 c12 -23 112 -148 126 -156 7 -4 -9 19 -35 52 -63 80 -100
122 -91 104z"/>
<path d="M5856 62 c-39 -20 -72 -43 -74 -49 -7 -24 24 -13 78 28 95 71 95 74
-4 21z"/>
<path d="M4402 68 c2 -7 14 -17 26 -23 11 -5 24 -18 27 -30 4 -14 8 -16 12 -6
3 7 -4 25 -14 40 -22 28 -58 42 -51 19z"/>
</g>
</svg>
